<svg width="795" height="295" viewBox="0 0 795 295" fill="none" xmlns="http://www.w3.org/2000/svg">
<g clip-path="url(#clip0_279_52)">
<path d="M92.7519 56.2072V90.9226C92.7519 96.5383 92.4966 102.494 91.9861 108.791C91.4756 115.087 90.1142 120.958 87.9019 126.404C85.8599 131.679 82.5415 136.019 77.9468 139.422C73.3521 142.825 66.8855 144.527 58.547 144.527V139.422C66.8855 139.422 73.3521 141.124 77.9468 144.527C82.5415 147.931 85.8599 152.355 87.9019 157.801C90.1142 163.076 91.4756 168.862 91.9861 175.158C92.4966 181.455 92.7519 187.411 92.7519 193.027V227.742C92.7519 230.975 93.858 233.868 96.0703 236.421C98.2825 239.144 101.261 240.505 105.004 240.505H113.938V267.052H93.2624C87.3063 267.052 81.5204 265.776 75.9047 263.223C70.4592 260.841 65.9496 257.012 62.3759 251.736C58.8023 246.461 57.0155 239.654 57.0155 231.316V182.05C57.0155 172.351 55.8243 165.544 53.4418 161.63C51.2296 157.716 47.5709 155.163 42.4657 153.972V129.977C47.5709 128.616 51.2296 126.063 53.4418 122.32C55.8243 118.406 57.0155 111.599 57.0155 101.899V52.6336C57.0155 44.1249 58.8023 37.318 62.3759 32.2128C65.9496 26.9374 70.4592 23.1085 75.9047 20.7261C81.5204 18.1735 87.3063 16.8972 93.2624 16.8972H113.938V43.4442H105.004C101.261 43.4442 98.2825 44.7205 96.0703 47.2731C93.858 49.8257 92.7519 52.8038 92.7519 56.2072ZM175.48 126.659C175.48 138.401 178.118 148.696 183.393 157.545C188.839 166.224 195.901 172.946 204.58 177.711C213.259 182.306 222.703 184.603 232.914 184.603C241.422 184.603 248.995 183.497 255.632 181.285C262.268 179.072 268.225 176.094 273.5 172.351C278.945 168.607 283.625 164.523 287.539 160.098V201.195C280.222 206.981 272.224 211.49 263.545 214.724C255.036 217.957 244.23 219.574 231.127 219.574C217.513 219.574 204.835 217.361 193.093 212.937C181.521 208.512 171.396 202.131 162.717 193.792C154.208 185.454 147.572 175.669 142.807 164.437C138.212 153.036 135.915 140.443 135.915 126.659C135.915 112.875 138.212 100.367 142.807 89.1358C147.572 77.7342 154.208 67.8641 162.717 59.5256C171.396 51.1871 181.521 44.8056 193.093 40.3811C204.835 35.9566 217.513 33.7444 231.127 33.7444C244.23 33.7444 255.036 35.361 263.545 38.5943C272.224 41.8276 280.222 46.3372 287.539 52.1231V93.2199C283.625 88.7954 278.945 84.7113 273.5 80.9675C268.225 77.2236 262.268 74.2456 255.632 72.0334C248.995 69.8211 241.422 68.715 232.914 68.715C222.703 68.715 213.259 71.0974 204.58 75.8623C195.901 80.4569 188.839 87.0937 183.393 95.7725C178.118 104.451 175.48 114.747 175.48 126.659ZM361.383 120.277C357.809 116.193 354.066 111.939 350.152 107.514C346.238 103.09 342.834 98.3251 339.941 93.2199C337.219 88.1147 335.857 82.499 335.857 76.3728C335.857 68.715 337.984 61.6528 342.239 55.1862C346.493 48.5494 352.449 43.2741 360.107 39.3601C367.765 35.4461 376.869 33.4891 387.42 33.4891C397.8 33.4891 406.649 35.5312 413.967 39.6153C421.284 43.6995 426.815 48.9749 430.559 55.4415C434.302 61.7379 436.174 68.4597 436.174 75.607C436.174 81.0525 435.238 85.9025 433.366 90.1568C431.495 94.4111 428.772 98.4953 425.198 102.409C421.624 106.323 417.285 110.152 412.18 113.896C407.075 117.64 401.119 121.724 394.312 126.148C389.717 129.041 384.782 131.764 379.507 134.317C374.401 136.699 369.551 139.252 364.957 141.975C360.362 144.697 356.618 147.931 353.725 151.674C350.832 155.418 349.386 160.098 349.386 165.714C349.386 170.479 350.577 174.818 352.96 178.732C355.512 182.476 359.001 185.454 363.425 187.666C368.02 189.708 373.38 190.729 379.507 190.729C386.994 190.729 394.312 189.198 401.459 186.135C408.776 182.901 415.754 178.562 422.39 173.116C429.197 167.501 435.664 161.119 441.79 153.972C447.916 146.654 453.702 138.997 459.148 130.998L481.866 147.59C475.91 155.929 469.273 164.352 461.956 172.861C454.808 181.37 446.81 189.113 437.961 196.09C429.282 202.897 419.753 208.427 409.372 212.682C398.991 216.936 387.675 219.063 375.422 219.063C364.531 219.063 354.491 217.021 345.302 212.937C336.112 208.853 328.71 203.067 323.094 195.579C317.478 187.921 314.671 178.902 314.671 168.522C314.671 160.523 316.202 153.631 319.265 147.846C322.328 142.06 326.242 137.125 331.007 133.04C335.772 128.786 340.962 125.213 346.578 122.32C352.194 119.427 357.554 116.959 362.659 114.917C367.935 112.705 372.359 110.748 375.933 109.046C385.463 104.111 392.78 99.0058 397.885 93.7305C402.991 88.2849 405.543 83.0946 405.543 78.1596C405.543 74.9263 404.777 71.9483 403.246 69.2255C401.884 66.5027 399.842 64.3756 397.12 62.844C394.397 61.1423 391.078 60.2914 387.164 60.2914C381.038 60.2914 376.358 62.0782 373.125 65.6519C369.892 69.0553 368.275 73.1395 368.275 77.9043C368.275 83.1797 370.487 88.4551 374.912 93.7305C379.507 98.8357 384.952 104.877 391.249 111.854L485.695 216H447.661L361.383 120.277ZM509.572 37.318H546.839V216H509.572V37.318ZM570.323 216H533.055V182.816H569.047C576.875 182.816 584.278 181.795 591.255 179.753C598.232 177.541 604.358 174.137 609.633 169.543C614.909 164.948 618.993 159.162 621.886 152.185C624.949 145.038 626.481 136.529 626.481 126.659C626.481 116.789 624.949 108.365 621.886 101.388C618.993 94.241 614.909 88.37 609.633 83.7753C604.358 79.1806 598.232 75.8623 591.255 73.8202C584.278 71.6079 576.875 70.5018 569.047 70.5018H533.055V37.318H570.323C589.042 37.318 605.379 40.9767 619.333 48.2942C633.458 55.6116 644.434 65.9922 652.262 79.4359C660.09 92.7094 664.004 108.45 664.004 126.659C664.004 144.868 660.09 160.694 652.262 174.137C644.434 187.411 633.458 197.706 619.333 205.024C605.379 212.341 589.042 216 570.323 216ZM708.118 227.742V193.027C708.118 187.411 708.373 181.455 708.884 175.158C709.394 168.862 710.671 163.076 712.713 157.801C714.925 152.355 718.328 147.931 722.923 144.527C727.518 141.124 734.069 139.422 742.578 139.422V144.527C734.069 144.527 727.518 142.825 722.923 139.422C718.328 136.019 714.925 131.679 712.713 126.404C710.671 120.958 709.394 115.087 708.884 108.791C708.373 102.494 708.118 96.5383 708.118 90.9226V56.2072C708.118 52.8038 707.012 49.8257 704.8 47.2731C702.757 44.7205 699.779 43.4442 695.865 43.4442H686.931V16.8972H707.863C713.649 16.8972 719.349 18.1735 724.965 20.7261C730.581 23.1085 735.09 26.9374 738.494 32.2128C742.067 37.318 743.854 44.1249 743.854 52.6336V101.899C743.854 111.599 745.046 118.406 747.428 122.32C749.81 126.063 753.469 128.616 758.404 129.977V153.972C753.469 155.163 749.81 157.716 747.428 161.63C745.046 165.544 743.854 172.351 743.854 182.05V231.316C743.854 239.654 742.067 246.461 738.494 251.736C735.09 257.012 730.581 260.841 724.965 263.223C719.349 265.776 713.649 267.052 707.863 267.052H686.931V240.505H695.865C699.779 240.505 702.757 239.144 704.8 236.421C707.012 233.868 708.118 230.975 708.118 227.742Z" fill="white"/>
</g>
<defs>
<clipPath id="clip0_279_52">
<rect width="795" height="295" fill="white"/>
</clipPath>
</defs>
</svg>
